<svg width="78" height="72" viewBox="0 0 78 72" fill="none" xmlns="http://www.w3.org/2000/svg">
<path d="M25.8921 28.0518H17.258C16.0637 28.0518 15.0982 29.0173 15.0982 30.2115V41.0003C15.0982 42.1895 16.0637 43.1601 17.258 43.1601H25.8921C27.0812 43.1601 28.0519 42.1946 28.0519 41.0003V30.2115C28.0468 29.0173 27.0812 28.0518 25.8921 28.0518Z" fill="#56AC9A"/>
<path d="M69.0473 0H8.62901C3.86222 0 0 3.86221 0 8.629V62.578C0 67.3448 3.86222 71.207 8.62901 71.207H69.0473C73.8141 71.207 77.6763 67.3448 77.6763 62.578V8.629C77.6763 3.86221 73.8141 0 69.0473 0ZM25.8921 7.55165H34.5211C36.3099 7.55165 37.7582 8.99998 37.7582 10.7888C37.7582 12.5776 36.3099 14.0259 34.5211 14.0259H25.8921C24.1033 14.0259 22.6549 12.5776 22.6549 10.7888C22.6549 8.99998 24.1033 7.55165 25.8921 7.55165ZM12.9435 6.47429C15.3269 6.47429 17.258 8.4054 17.258 10.7888C17.258 13.1722 15.3269 15.1033 12.9435 15.1033C10.5601 15.1033 8.62901 13.1722 8.62901 10.7888C8.62901 8.4054 10.5601 6.47429 12.9435 6.47429ZM69.0473 60.4183C69.0473 61.6125 68.0817 62.578 66.8875 62.578H10.7837C9.58947 62.578 8.62392 61.6125 8.62392 60.4183V23.7374C8.62392 22.5431 9.58947 21.5776 10.7837 21.5776H66.8875C68.0766 21.5776 69.0473 22.5431 69.0473 23.7374V60.4183ZM58.9496 28.5906H34.2568C32.5544 28.5906 31.1722 29.8 31.1722 31.289C31.1722 32.778 32.5544 33.9875 34.2568 33.9875H58.9496C60.6571 33.9875 62.0343 32.778 62.0343 31.289C62.0343 29.8 60.652 28.5906 58.9496 28.5906ZM59.844 39.3793H42.3014C41.0919 39.3793 40.1111 40.5888 40.1111 42.0778C40.1111 43.5668 41.0919 44.7763 42.3014 44.7763H59.844C61.0535 44.7763 62.0394 43.5668 62.0394 42.0778C62.0343 40.5888 61.0535 39.3793 59.844 39.3793ZM59.3358 50.1681H18.3354C16.8464 50.1681 15.6369 51.3776 15.6369 52.8666C15.6369 54.3556 16.8464 55.5651 18.3354 55.5651H59.3358C60.8248 55.5651 62.0343 54.3556 62.0343 52.8666C62.0343 51.3776 60.8248 50.1681 59.3358 50.1681Z" fill="#56AC9A"/>
</svg>
