<svg width="56" height="56" viewBox="0 0 56 56" fill="none" xmlns="http://www.w3.org/2000/svg">
<path d="M53.0995 5.70349H21.7979C20.5977 5.70349 19.6212 6.68004 19.6212 7.88022C19.6212 9.0804 20.5977 10.0569 21.7979 10.0569H53.0995C54.2997 10.0569 55.2762 9.0804 55.2762 7.88022C55.2762 6.68004 54.2997 5.70349 53.0995 5.70349Z" fill="#56AC9A"/>
<path d="M53.0995 25.4878H21.7979C20.5977 25.4878 19.6212 26.4643 19.6212 27.6645C19.6212 28.8647 20.5977 29.8412 21.7979 29.8412H53.0995C54.2997 29.8412 55.2762 28.8647 55.2762 27.6645C55.2762 26.4643 54.2997 25.4878 53.0995 25.4878Z" fill="#56AC9A"/>
<path d="M53.0995 45.2722H21.7979C20.5977 45.2722 19.6212 46.2488 19.6212 47.4489C19.6212 48.6491 20.5977 49.6257 21.7979 49.6257H53.0995C54.2997 49.6257 55.2762 48.6491 55.2762 47.4489C55.2762 46.2488 54.2997 45.2722 53.0995 45.2722Z" fill="#56AC9A"/>
<path d="M14.7086 19.5837H2.9006C1.70042 19.5837 0.723877 20.5603 0.723877 21.7605V33.5685C0.723877 34.7687 1.70042 35.7452 2.9006 35.7452H14.7086C15.9088 35.7452 16.8853 34.7687 16.8853 33.5685V21.7605C16.8853 20.5603 15.9088 19.5837 14.7086 19.5837ZM12.5319 31.3917H5.07733V23.9372H12.5319V31.3917Z" fill="#56AC9A"/>
<path d="M14.8233 0H3.01535C1.81517 0 0.838623 0.976547 0.838623 2.17673V13.9847C0.838623 15.1849 1.81517 16.1615 3.01535 16.1615H14.8233C16.0235 16.1615 17.0001 15.1849 17.0001 13.9847V2.17673C17.0001 0.976547 16.0235 0 14.8233 0ZM3.50006 4L2.50006 11.5L5.19208 4.35345L12.5001 3L3.50006 4Z" fill="#56AC9A"/>
<path d="M14.7086 39.3682H2.9006C1.70042 39.3682 0.723877 40.3447 0.723877 41.5449V53.3603C0.723877 54.5605 1.70042 55.5371 2.9006 55.5371H14.7086C15.9088 55.5371 16.8853 54.5605 16.8853 53.3603V41.5449C16.8853 40.3447 15.9088 39.3682 14.7086 39.3682ZM12.5319 51.1836H5.07733V43.7291H12.5319V51.1836Z" fill="#56AC9A"/>
</svg>
