<svg width="51" height="71" viewBox="0 0 51 71" fill="none" xmlns="http://www.w3.org/2000/svg">
<g filter="url(#filter0_d_34_25)">
<path fill-rule="evenodd" clip-rule="evenodd" d="M41 23.5C41 26.7151 40.0211 29.7016 38.3451 32.1777L27.3353 57.6036C26.6395 59.2107 24.3605 59.2107 23.6647 57.6036L12.6549 32.1777C10.9789 29.7016 10 26.7151 10 23.5C10 14.9396 16.9396 8 25.5 8C34.0604 8 41 14.9396 41 23.5ZM25.5 32.4737C30.456 32.4737 34.4737 28.456 34.4737 23.5C34.4737 18.544 30.456 14.5263 25.5 14.5263C20.544 14.5263 16.5263 18.544 16.5263 23.5C16.5263 28.456 20.544 32.4737 25.5 32.4737Z" fill="#56AC9A"/>
</g>
<defs>
<filter id="filter0_d_34_25" x="0" y="0" width="51" height="70.8088" filterUnits="userSpaceOnUse" color-interpolation-filters="sRGB">
<feFlood flood-opacity="0" result="BackgroundImageFix"/>
<feColorMatrix in="SourceAlpha" type="matrix" values="0 0 0 0 0 0 0 0 0 0 0 0 0 0 0 0 0 0 127 0" result="hardAlpha"/>
<feOffset dy="2"/>
<feGaussianBlur stdDeviation="5"/>
<feComposite in2="hardAlpha" operator="out"/>
<feColorMatrix type="matrix" values="0 0 0 0 0 0 0 0 0 0 0 0 0 0 0 0 0 0 0.1 0"/>
<feBlend mode="normal" in2="BackgroundImageFix" result="effect1_dropShadow_34_25"/>
<feBlend mode="normal" in="SourceGraphic" in2="effect1_dropShadow_34_25" result="shape"/>
</filter>
</defs>
</svg>
