<svg width="71" height="79" viewBox="0 0 71 79" fill="none" xmlns="http://www.w3.org/2000/svg">
<path d="M69.7309 21.3478C67.8791 15.6919 61.4951 13.4509 56.6364 16.2569C53.7614 17.9141 52.1795 20.9146 52.1733 24.0094C52.1733 25.0702 51.6585 26.0558 50.742 26.5893L49.2166 27.4681C47.8042 28.2842 47.3146 30.1109 48.1307 31.5233L48.1432 31.5484L48.1558 31.5735C48.9718 32.9859 50.7922 33.4755 52.2046 32.6595L53.73 31.7807C54.6465 31.2534 55.7576 31.3036 56.6678 31.8246C59.7249 33.5822 63.7047 33.5069 66.7931 31.0399C69.6618 28.755 70.8671 24.8191 69.7309 21.3478Z" fill="#56AC9A"/>
<path d="M21.9856 46.6138C21.1696 45.2014 19.3492 44.7118 17.9368 45.5278L16.4114 46.4067C15.4949 46.934 14.3838 46.8837 13.4736 46.3627C10.4166 44.6051 6.43674 44.6804 3.3483 47.1474C0.498406 49.4323 -0.713115 53.3682 0.423078 56.8395C2.27488 62.4954 8.65891 64.7364 13.5113 61.9304C16.3863 60.2732 17.9682 57.2727 17.9744 54.178C17.9807 53.1171 18.4892 52.1253 19.4057 51.598L20.931 50.7192C22.3434 49.9031 22.8331 48.0764 22.017 46.664L21.9856 46.6138ZM20.931 27.4617L19.4057 26.5829C18.4892 26.0556 17.9807 25.0701 17.9744 24.0155C17.9682 20.4876 15.9092 17.0791 12.2307 15.6416C8.82839 14.3108 4.81092 15.2335 2.37532 17.9516C-1.59822 22.3834 -0.349031 29.0311 4.50961 31.837C7.38461 33.4942 10.7744 33.3687 13.4548 31.8307C14.3713 31.3034 15.4886 31.2532 16.4051 31.7805L17.9305 32.6594C19.3429 33.4754 21.1696 32.9858 21.9794 31.5734L22.0107 31.5169C22.8331 30.1045 22.3434 28.2778 20.931 27.4617ZM30.5542 16.7401C31.4706 17.2737 32.0733 18.209 32.0733 19.2698V21.0275C32.0733 22.6596 33.4103 23.9967 35.0424 23.9904H35.1052C36.7373 23.9904 38.0744 22.6596 38.0744 21.0275V19.2636C38.0744 18.209 38.6707 17.2674 39.5872 16.7401C42.638 14.9699 44.5651 11.486 43.9688 7.5815C43.4164 3.97204 40.6104 0.958936 37.0323 0.205659C31.207 -1.01842 26.0784 3.38826 26.0784 9.00018C26.0784 12.3146 27.88 15.1896 30.5542 16.7401ZM65.638 46.3502C62.7693 44.693 59.3733 44.8185 56.6929 46.3564C55.7764 46.8837 54.659 46.934 53.7425 46.4067L52.2172 45.5278C50.8048 44.7118 48.9781 45.2014 48.162 46.6138L48.1306 46.6703C47.3146 48.0827 47.7979 49.9094 49.2166 50.7254L50.742 51.6043C51.6585 52.1316 52.1669 53.1171 52.1732 54.1717C52.1795 57.6995 54.2384 61.1081 57.9169 62.5456C61.3192 63.8764 65.3305 62.9536 67.7723 60.2293C71.7521 55.8038 70.4967 49.1498 65.638 46.3502ZM35.0738 29.0938C29.5623 29.0938 25.0741 33.5821 25.0741 39.0936C25.0741 44.6051 29.5623 49.0933 35.0738 49.0933C40.5853 49.0933 45.0736 44.6051 45.0736 39.0936C45.0736 33.5821 40.5916 29.0938 35.0738 29.0938ZM39.5935 61.4471C38.677 60.9135 38.0744 59.9782 38.0744 58.9173V57.1597C38.0744 55.5276 36.7373 54.1905 35.1052 54.1968H35.0424C33.4103 54.1968 32.0733 55.5276 32.0733 57.1597V58.9173C32.0733 59.9719 31.4769 60.9135 30.5604 61.4408C27.5097 63.211 25.5825 66.6949 26.1789 70.5994C26.7313 74.2089 29.5372 77.222 33.109 77.9815C38.9344 79.2119 44.0629 74.7989 44.0629 69.187C44.0755 65.8726 42.2676 62.9976 39.5935 61.4471Z" fill="#56AC9A"/>
</svg>
