<svg width="59" height="82" viewBox="0 0 59 82" fill="none" xmlns="http://www.w3.org/2000/svg">
<path d="M56.3897 19.0238H2.16681C0.967337 19.0238 3.05176e-05 19.996 3.05176e-05 21.1906V79.7519C3.05176e-05 80.9514 0.972174 81.9187 2.16681 81.9187H56.3897C57.5892 81.9187 58.5613 80.9465 58.5613 79.7519V21.1954C58.5613 19.996 57.5892 19.0238 56.3897 19.0238ZM11.3853 29.524H24.9423C26.4416 29.524 27.6507 30.738 27.6507 32.2325C27.6507 33.727 26.4368 34.9458 24.9423 34.9458H11.3853C9.88599 34.9458 8.67201 33.7318 8.67201 32.2325C8.67201 30.7332 9.89083 29.524 11.3853 29.524ZM11.3853 42.341H24.9423C26.4416 42.341 27.6507 43.5549 27.6507 45.0494C27.6507 46.5488 26.4368 47.7628 24.9423 47.7628H11.3853C9.88599 47.7628 8.67201 46.5488 8.67201 45.0494C8.67685 43.5549 9.89083 42.341 11.3853 42.341ZM44.4627 73.7884H11.3902C9.89083 73.7884 8.67686 72.5744 8.67686 71.0751C8.67686 69.5757 9.89083 68.3617 11.3902 68.3617H44.4627C45.962 68.3617 47.176 69.5757 47.176 71.0751C47.176 72.5744 45.9572 73.7884 44.4627 73.7884ZM44.4627 60.778H11.3902C9.89083 60.778 8.67686 59.564 8.67686 58.0695C8.67686 56.575 9.89083 55.3562 11.3902 55.3562H44.4627C45.962 55.3562 47.176 56.5702 47.176 58.0695C47.176 59.5688 45.9572 60.778 44.4627 60.778ZM47.7129 44.1643C47.7129 45.3638 46.7407 46.3311 45.5461 46.3311H36.8693C35.6698 46.3311 34.7025 45.359 34.7025 44.1643V32.2325C34.7025 31.033 35.6746 30.0657 36.8693 30.0657H45.5461C46.7456 30.0657 47.7129 31.0379 47.7129 32.2325V44.1643Z" fill="#56AC9A"/>
<path d="M52.4092 0.0450106L1.45585 10.0229C0.604608 10.2163 3.05176e-05 10.9322 3.05176e-05 11.764C3.05176e-05 12.7507 0.846424 13.5536 1.89596 13.5536H52.8735C54.1455 13.5536 55.1709 12.5814 55.1709 11.3868V2.17311C55.1709 0.79468 53.836 -0.230674 52.4092 0.0450106Z" fill="#56AC9A"/>
</svg>
