<svg width="75" height="59" viewBox="0 0 75 59" fill="none" xmlns="http://www.w3.org/2000/svg">
<path d="M70.7735 0H66.8945C64.7544 0 63.0156 1.73886 63.0156 3.879V54.2956C63.0156 56.4357 64.7493 58.1746 66.8945 58.1746H70.7735C72.9137 58.1746 74.6525 56.4357 74.6525 54.2956V3.879C74.6474 1.73886 72.9137 0 70.7735 0Z" fill="#56AC9A"/>
<path d="M56.9347 5.58704L13.309 17.8568C12.8923 17.9751 12.599 18.3558 12.599 18.7879V41.9333V49.6398C12.599 52.7986 14.8832 55.4943 18.0008 56.0139L32.2203 58.3855C32.5753 58.4473 32.9354 58.473 33.2904 58.473C34.808 58.473 36.2845 57.938 37.4626 56.9399C38.9134 55.7104 39.7468 53.9098 39.7468 52.0063V49.29L56.945 53.951C57.5624 54.1207 58.1694 53.6526 58.1694 53.0146V6.51305C58.1694 5.88027 57.5521 5.41212 56.9347 5.58704ZM33.9283 52.0115C33.9283 52.2584 33.8048 52.4179 33.6968 52.5053C33.5939 52.5928 33.419 52.6905 33.1721 52.6494L18.9525 50.2777C18.6387 50.2263 18.4175 49.9588 18.4175 49.6398V43.5075L33.9283 47.7158V52.0115ZM6.78566 19.3899H3.87899C1.73885 19.3899 0 21.1287 0 23.2689V36.8402C0 38.9803 1.73885 40.7192 3.87899 40.7192H6.78566C7.32069 40.7192 7.75283 40.287 7.75283 39.752V20.3622C7.75283 19.8271 7.32069 19.3899 6.78566 19.3899Z" fill="#56AC9A"/>
</svg>
