<svg width="66" height="73" viewBox="0 0 66 73" fill="none" xmlns="http://www.w3.org/2000/svg">
<path d="M57.2155 0H8.66522C4.00284 0 0.220856 3.78197 0.220856 8.44435V50.6614C0.220856 55.3238 4.00284 59.1057 8.66522 59.1057H20.1058C20.7448 59.1057 21.3554 59.3992 21.753 59.8962L31.2908 71.8196C32.1381 72.8751 33.7427 72.8751 34.5852 71.8196L44.123 59.8962C44.5253 59.3945 45.1312 59.1057 45.7702 59.1057H57.2108C61.8732 59.1057 65.6551 55.3238 65.6551 50.6614V8.44435C65.6599 3.78197 61.8779 0 57.2155 0ZM32.938 50.6614C21.2797 50.6614 11.8319 41.2088 11.8319 29.5552C11.8319 17.8969 21.2844 8.44435 32.938 8.44435C44.5963 8.44435 54.0441 17.8969 54.0441 29.5552C54.0489 41.2088 44.5963 50.6614 32.938 50.6614Z" fill="#56AC9A"/>
<path d="M38.2157 18.9951C36.1473 18.9951 34.2776 19.8519 32.938 21.2245C31.5985 19.8519 29.7335 18.9951 27.6603 18.9951C23.5801 18.9951 20.2715 22.3038 20.2715 26.3839C20.2715 35.8838 32.938 42.2171 32.938 42.2171C32.938 42.2171 45.6046 35.8838 45.6046 26.3839C45.6046 22.3038 42.2959 18.9951 38.2157 18.9951Z" fill="#56AC9A"/>
</svg>
